<svg width="95" height="99" viewBox="0 0 95 99" fill="none" xmlns="http://www.w3.org/2000/svg">
<rect y="3" width="95" height="96" rx="14" fill="#C6D2DF"/>
<path d="M31.5439 40.709V74H23.8535V40.709H31.5439ZM22.6914 26.8662C22.6914 25.5218 23.1813 24.3597 24.1611 23.3799C25.141 22.4001 26.3145 21.9102 27.6816 21.9102C29.0716 21.9102 30.2565 22.4001 31.2363 23.3799C32.2161 24.3369 32.7061 25.5104 32.7061 26.9004C32.7061 28.2904 32.2161 29.4753 31.2363 30.4551C30.2793 31.4349 29.1058 31.9248 27.7158 31.9248C26.3258 31.9248 25.141 31.4349 24.1611 30.4551C23.1813 29.4753 22.6914 28.279 22.6914 26.8662ZM41.2852 40.709H49.0098V43.7852C51.6986 41.1191 54.7292 39.7861 58.1016 39.7861C61.9753 39.7861 64.9945 41.0052 67.1592 43.4434C69.0277 45.5169 69.9619 48.9007 69.9619 53.5947V74H62.2373V55.4062C62.2373 52.125 61.7816 49.8577 60.8701 48.6045C59.9814 47.3285 58.3636 46.6904 56.0166 46.6904C53.4645 46.6904 51.653 47.5335 50.582 49.2197C49.5339 50.8831 49.0098 53.7884 49.0098 57.9355V74H41.2852V40.709Z" fill="white"/>
</svg>
