<svg width="72" height="71" viewBox="0 0 72 71" fill="none" xmlns="http://www.w3.org/2000/svg">
<ellipse cx="36" cy="35.5" rx="36" ry="35.5" fill="#7E91A7"/>
<path d="M28.6819 31.5295L21.2876 35.6458L23.7547 40.0776L30.934 36.081L32.3904 38.6971L25.211 42.6937L28.6424 48.8577L36.0367 44.7414L37.4931 47.3575L27.3154 53.0232L17.0479 34.5791L27.2256 28.9134L28.6819 31.5295ZM45.0629 20.2824L46.8983 23.5794C44.5404 23.1291 42.5013 23.3827 40.7812 24.3403C38.8858 25.3954 37.6681 26.9652 37.1281 29.0496C36.5757 31.1305 36.8448 33.1505 37.9354 35.1096C39.0127 37.0448 40.5745 38.3138 42.6209 38.9167C44.6673 39.5196 46.6382 39.2935 48.5336 38.2384C49.5132 37.6931 50.2567 37.0705 50.7643 36.3707C51.0579 35.9986 51.3324 35.5642 51.5878 35.0673C51.8512 34.566 52.1034 33.9979 52.3446 33.3629L54.2132 36.7196C53.1214 38.5062 51.6995 39.8871 49.9475 40.8625C47.3115 42.3299 44.5496 42.6625 41.662 41.8602C38.7735 41.0376 36.6 39.3163 35.1414 36.6962C33.8336 34.3469 33.4441 31.8202 33.973 29.116C34.6297 25.7983 36.4751 23.2949 39.5093 21.6058C41.1658 20.6837 43.017 20.2426 45.0629 20.2824Z" fill="#C6D2DF"/>
<path d="M28.6819 29.5295L21.2876 33.6458L23.7547 38.0776L30.934 34.081L32.3904 36.6971L25.211 40.6937L28.6424 46.8577L36.0367 42.7414L37.4931 45.3575L27.3154 51.0232L17.0479 32.5791L27.2256 26.9134L28.6819 29.5295ZM45.0629 18.2824L46.8983 21.5794C44.5404 21.1291 42.5013 21.3827 40.7812 22.3403C38.8858 23.3954 37.6681 24.9652 37.1281 27.0496C36.5757 29.1305 36.8448 31.1505 37.9354 33.1096C39.0127 35.0448 40.5745 36.3138 42.6209 36.9167C44.6673 37.5196 46.6382 37.2935 48.5336 36.2384C49.5132 35.6931 50.2567 35.0705 50.7643 34.3707C51.0579 33.9986 51.3324 33.5642 51.5878 33.0673C51.8512 32.566 52.1034 31.9979 52.3446 31.3629L54.2132 34.7196C53.1214 36.5062 51.6995 37.8871 49.9475 38.8625C47.3115 40.3299 44.5496 40.6625 41.662 39.8602C38.7735 39.0376 36.6 37.3163 35.1414 34.6962C33.8336 32.3469 33.4441 29.8202 33.973 27.116C34.6297 23.7983 36.4751 21.2949 39.5093 19.6058C41.1658 18.6837 43.017 18.2426 45.0629 18.2824Z" fill="white"/>
</svg>
